<svg id="Layer_1" data-name="Layer 1" xmlns="http://www.w3.org/2000/svg" viewBox="0 0 1187.08 356.52"><defs><style>.cls-1{fill:#006681;}.cls-2{fill:#00a4c4;}</style></defs><polygon class="cls-1" points="0 0 0 356.52 120.2 356.52 120.2 246.24 223.17 151.78 120.2 151.78 120.2 90.66 289.8 90.66 289.8 0 0 0"/><polygon class="cls-2" points="0 0 0 356.52 120.2 246.25 120.14 0 0 0"/><path class="cls-1" d="M283.54,248.19a1.55,1.55,0,0,1-.47-1.14V156.8a1.57,1.57,0,0,1,.47-1.14,1.54,1.54,0,0,1,1.13-.46H300.3a1.54,1.54,0,0,1,1.13.46,1.57,1.57,0,0,1,.47,1.14v90.25a1.6,1.6,0,0,1-1.6,1.61H284.67a1.55,1.55,0,0,1-1.13-.47"/><path class="cls-1" d="M327.33,248.19a1.55,1.55,0,0,1-.47-1.14V156.8a1.57,1.57,0,0,1,.47-1.14,1.55,1.55,0,0,1,1.14-.46h15.35a1.89,1.89,0,0,1,1.87,1.2l11.62,25c.26.54.53.54.8,0l11.61-25a1.89,1.89,0,0,1,1.87-1.2h15.49a1.57,1.57,0,0,1,1.6,1.6v90.25a1.55,1.55,0,0,1-.46,1.14,1.57,1.57,0,0,1-1.14.47H371.46a1.59,1.59,0,0,1-1.6-1.61V189.37c0-.35-.11-.55-.34-.59s-.38.11-.46.46l-10.42,20.7c-.35.8-.67,1.2-.93,1.2s-.49-.4-.94-1.2l-10.28-21c-.18-.26-.35-.4-.53-.4s-.27.18-.27.54v57.94a1.59,1.59,0,0,1-1.6,1.61H328.47a1.55,1.55,0,0,1-1.14-.47"/><path class="cls-1" d="M452.9,247.19l-2.13-12.82q0-.66-.81-.66H433.28c-.54,0-.81.17-.81.53l-2.4,12.95a1.5,1.5,0,0,1-1.73,1.47H412.71c-1.16,0-1.6-.58-1.33-1.74L431,156.66a1.6,1.6,0,0,1,1.73-1.47h18a1.61,1.61,0,0,1,1.73,1.47L472,246.92l.13.54q0,1.2-1.47,1.2h-16a1.51,1.51,0,0,1-1.74-1.47m-16.82-28h11.48c.36,0,.54-.22.54-.67L442.49,184c-.09-.26-.22-.4-.4-.4s-.32.14-.4.4l-6.28,34.45c-.09.45.14.67.67.67"/><path class="cls-1" d="M497.7,242.85q-7.27-6.89-7.28-18.36V179.36q0-11.48,7.28-18.36T517,154.13q12,0,19.36,6.94t7.35,18.42v5.08a1.55,1.55,0,0,1-.47,1.13,1.53,1.53,0,0,1-1.14.47H526.47a1.5,1.5,0,0,1-1.13-.47,1.55,1.55,0,0,1-.47-1.13v-5.34a9.54,9.54,0,0,0-2.14-6.48,7.21,7.21,0,0,0-5.74-2.47,7.1,7.1,0,0,0-5.61,2.47,9.58,9.58,0,0,0-2.13,6.48v45.39a9.57,9.57,0,0,0,2.13,6.48,7.06,7.06,0,0,0,5.61,2.47,7.18,7.18,0,0,0,5.74-2.47,9.52,9.52,0,0,0,2.14-6.48V213.94a.59.59,0,0,0-.67-.67h-5.87a1.59,1.59,0,0,1-1.61-1.6V199.79a1.59,1.59,0,0,1,1.61-1.6h23.76a1.6,1.6,0,0,1,1.14.46,1.57,1.57,0,0,1,.47,1.14v24.7q0,11.49-7.35,18.36T517,249.72q-12,0-19.29-6.87"/><path class="cls-1" d="M615.59,170.88a1.51,1.51,0,0,1-1.13.47H586.55a.59.59,0,0,0-.66.67v21.09a.59.59,0,0,0,.66.67h16a1.6,1.6,0,0,1,1.61,1.6v13a1.6,1.6,0,0,1-1.61,1.6h-16a.58.58,0,0,0-.66.66v21.24a.58.58,0,0,0,.66.66h27.91a1.55,1.55,0,0,1,1.13.47,1.51,1.51,0,0,1,.47,1.13v13a1.52,1.52,0,0,1-.47,1.14,1.55,1.55,0,0,1-1.13.47h-45.8a1.55,1.55,0,0,1-1.13-.47,1.52,1.52,0,0,1-.47-1.14V156.8a1.52,1.52,0,0,1,.47-1.14,1.54,1.54,0,0,1,1.13-.46h45.8a1.54,1.54,0,0,1,1.13.46,1.52,1.52,0,0,1,.47,1.14v12.95a1.51,1.51,0,0,1-.47,1.13"/><path class="cls-1" d="M727.35,170.88a1.53,1.53,0,0,1-1.14.47H698.44a.59.59,0,0,0-.67.67v21.09a.59.59,0,0,0,.67.67h15.89a1.55,1.55,0,0,1,1.13.47,1.51,1.51,0,0,1,.47,1.13v13a1.51,1.51,0,0,1-.47,1.13,1.55,1.55,0,0,1-1.13.47H698.44a.59.59,0,0,0-.67.66v36.45a1.59,1.59,0,0,1-1.6,1.61H680.55a1.59,1.59,0,0,1-1.6-1.61V156.8a1.57,1.57,0,0,1,1.6-1.6h45.66a1.59,1.59,0,0,1,1.61,1.6v12.95a1.55,1.55,0,0,1-.47,1.13"/><path class="cls-1" d="M754.52,242.52q-7.35-7.22-7.35-19.23V180.56q0-12,7.35-19.22t19.62-7.21q12.29,0,19.7,7.21t7.41,19.22v42.73q0,12-7.41,19.23t-19.7,7.2q-12.28,0-19.62-7.2M780.15,231a10.12,10.12,0,0,0,2.27-6.88V179.76a10.09,10.09,0,0,0-2.27-6.87,7.57,7.57,0,0,0-6-2.61,7.38,7.38,0,0,0-5.94,2.61,10.27,10.27,0,0,0-2.2,6.87v44.33a10.29,10.29,0,0,0,2.2,6.88,7.4,7.4,0,0,0,5.94,2.6,7.6,7.6,0,0,0,6-2.6"/><path class="cls-1" d="M831.89,242.18q-7.29-7.55-7.28-20.09V156.8a1.57,1.57,0,0,1,.47-1.14,1.55,1.55,0,0,1,1.13-.47h15.63a1.55,1.55,0,0,1,1.13.47,1.57,1.57,0,0,1,.47,1.14V224a10.73,10.73,0,0,0,2.14,6.94,6.82,6.82,0,0,0,5.6,2.67,6.66,6.66,0,0,0,5.54-2.67,11,11,0,0,0,2.07-6.94V156.8a1.53,1.53,0,0,1,.47-1.14,1.55,1.55,0,0,1,1.14-.47H876a1.55,1.55,0,0,1,1.13.47,1.57,1.57,0,0,1,.47,1.14v65.29q0,12.54-7.28,20.09t-19.16,7.54q-12,0-19.29-7.54"/><path class="cls-1" d="M902.12,248.19a1.55,1.55,0,0,1-.47-1.14V156.8a1.57,1.57,0,0,1,.47-1.14,1.55,1.55,0,0,1,1.14-.46h16.82a1.66,1.66,0,0,1,1.73,1.33L939,206.47c.1.26.25.38.47.33a.42.42,0,0,0,.34-.47V156.8a1.57,1.57,0,0,1,1.6-1.6H956.8a1.56,1.56,0,0,1,1.13.46,1.57,1.57,0,0,1,.47,1.14v90.25a1.6,1.6,0,0,1-1.6,1.61h-17a1.69,1.69,0,0,1-1.74-1.34l-17.22-50.07a.5.5,0,0,0-.47-.4c-.22,0-.33.14-.33.4l.13,49.8a1.6,1.6,0,0,1-1.6,1.61H903.26a1.55,1.55,0,0,1-1.14-.47"/><path class="cls-1" d="M984,248.19a1.55,1.55,0,0,1-.47-1.13V156.8a1.59,1.59,0,0,1,1.61-1.6h24.17q12.13,0,19.49,7.07t7.34,18.83v41.66q0,11.75-7.34,18.82t-19.49,7.08H985.1a1.57,1.57,0,0,1-1.14-.47m19-15.69,6-.13a7.46,7.46,0,0,0,5.87-3.07,13,13,0,0,0,2.41-7.75V182.3a12.81,12.81,0,0,0-2.27-8,7.36,7.36,0,0,0-6.14-2.94H1003a.59.59,0,0,0-.67.67v59.82a.59.59,0,0,0,.67.66"/><path class="cls-1" d="M1095.38,247.32l-10.28-36.85c-.18-.35-.4-.53-.67-.53h-4.54a.58.58,0,0,0-.66.66v36.45a1.59,1.59,0,0,1-1.6,1.6H1062a1.54,1.54,0,0,1-1.13-.46,1.52,1.52,0,0,1-.47-1.14V156.66a1.51,1.51,0,0,1,.47-1.13,1.55,1.55,0,0,1,1.13-.47h27a23.68,23.68,0,0,1,22,13.62,32.69,32.69,0,0,1,3.14,14.56,30.69,30.69,0,0,1-3,13.88,23.66,23.66,0,0,1-8.34,9.48,1,1,0,0,0-.4.33.44.44,0,0,0,0,.47l12.28,39.39.13.53c0,.89-.49,1.33-1.47,1.33h-16a1.76,1.76,0,0,1-1.87-1.33M1079.23,172v22.69a.59.59,0,0,0,.66.67h6a8.32,8.32,0,0,0,6.75-3.2q2.6-3.21,2.6-8.68c0-3.82-.87-6.81-2.6-8.94a8.3,8.3,0,0,0-6.75-3.21h-6a.59.59,0,0,0-.66.67"/><path class="cls-1" d="M1149.66,248.06a1.52,1.52,0,0,1-.47-1.14V212.21l-.13-.8-18.69-54.35a1.32,1.32,0,0,1-.14-.66q0-1.2,1.47-1.2h16.42a1.76,1.76,0,0,1,1.87,1.33l8.28,31.91c.08.27.22.4.4.4s.31-.13.4-.4l8.28-31.91a1.76,1.76,0,0,1,1.87-1.33h16.42a1.5,1.5,0,0,1,1.2.46,1.48,1.48,0,0,1,.14,1.4l-18.83,54.35-.13.8v34.71a1.6,1.6,0,0,1-1.6,1.61h-15.63a1.55,1.55,0,0,1-1.13-.47"/><path class="cls-2" d="M500,299.58c2.75,3.23,4.14,7.45,4.14,12.68s-1.34,9.24-4,12.37a13.17,13.17,0,0,1-10.54,4.71h-8.19a.3.3,0,0,0-.35.35V355a.77.77,0,0,1-.87.87h-6.63a.77.77,0,0,1-.87-.87V295.62a.77.77,0,0,1,.87-.87h15.6A13.61,13.61,0,0,1,500,299.58Zm-6.41,20.31a11.69,11.69,0,0,0,2.18-7.45,12.22,12.22,0,0,0-2.18-7.63,6.88,6.88,0,0,0-5.75-2.83h-6.44a.31.31,0,0,0-.35.35v19.95a.31.31,0,0,0,.35.35h6.44A7,7,0,0,0,493.62,319.89Z"/><path class="cls-2" d="M557.83,302.07h-19.6a.31.31,0,0,0-.35.35v18.9a.31.31,0,0,0,.35.35h12a.77.77,0,0,1,.87.87V328a.77.77,0,0,1-.87.87h-12a.31.31,0,0,0-.35.35v19a.31.31,0,0,0,.35.35h19.6a.78.78,0,0,1,.88.87V355a.78.78,0,0,1-.88.87H530.39a.77.77,0,0,1-.87-.87V295.71a.78.78,0,0,1,.87-.88h27.44a.78.78,0,0,1,.88.88v5.48A.78.78,0,0,1,557.83,302.07Z"/><path class="cls-2" d="M607.76,355.13,599.65,329a.33.33,0,0,0-.34-.26h-6a.3.3,0,0,0-.34.34V355a.78.78,0,0,1-.88.87h-6.62a.77.77,0,0,1-.87-.87V295.62a.77.77,0,0,1,.87-.87h15.6a14.32,14.32,0,0,1,7.84,2.17,14.53,14.53,0,0,1,5.27,6.15,20.83,20.83,0,0,1,1.88,9,19,19,0,0,1-2.31,9.54,13.3,13.3,0,0,1-6.23,5.8.49.49,0,0,0-.18.52l9,26.93.08.34c0,.41-.26.61-.78.61h-6.8A1,1,0,0,1,607.76,355.13ZM593,302.33v19.51c0,.24.11.35.34.35h6.45a7,7,0,0,0,5.75-2.74,11.38,11.38,0,0,0,2.18-7.28,11.69,11.69,0,0,0-2.18-7.45,7,7,0,0,0-5.75-2.74h-6.45A.31.31,0,0,0,593,302.33Z"/><path class="cls-2" d="M644.74,352.21a15.44,15.44,0,0,1-4.23-11.29v-2.35a.77.77,0,0,1,.87-.87h6.45a.77.77,0,0,1,.87.87v1.92a9.64,9.64,0,0,0,2,6.4,6.37,6.37,0,0,0,5.14,2.4A6.61,6.61,0,0,0,661,347a8.77,8.77,0,0,0,2.05-6.06,8.91,8.91,0,0,0-1.09-4.44,13,13,0,0,0-2.88-3.44q-1.79-1.52-5.79-4.49a83.47,83.47,0,0,1-7-5.66,21.23,21.23,0,0,1-4.27-5.66,16.45,16.45,0,0,1-1.74-7.76q0-7.05,4.18-11.2a16.38,16.38,0,0,1,22.09.31q4.23,4.44,4.22,11.68v2.18a.77.77,0,0,1-.87.87h-6.45a.76.76,0,0,1-.86-.87v-2.36a9.48,9.48,0,0,0-2-6.31,6.49,6.49,0,0,0-5.23-2.4,6.24,6.24,0,0,0-4.92,2.13,8.77,8.77,0,0,0-1.87,6,9.15,9.15,0,0,0,1.91,5.88,42.21,42.21,0,0,0,7.32,6.41,100.91,100.91,0,0,1,8,6.36,18.1,18.1,0,0,1,4.09,5.36,15.46,15.46,0,0,1,1.44,6.92q0,7.32-4.32,11.72a16.45,16.45,0,0,1-22.3.09Z"/><path class="cls-2" d="M701.11,351.77q-4.32-4.74-4.31-12.5V295.71a.78.78,0,0,1,.87-.88h6.62a.78.78,0,0,1,.87.88v44.43a10.15,10.15,0,0,0,2.05,6.62,6.55,6.55,0,0,0,5.36,2.53,6.63,6.63,0,0,0,5.44-2.53,10.21,10.21,0,0,0,2-6.62V295.71a.78.78,0,0,1,.87-.88h6.62a.78.78,0,0,1,.88.88v43.56q0,7.75-4.37,12.5a16.24,16.24,0,0,1-22.95,0Z"/><path class="cls-2" d="M779.91,355,778,345a.29.29,0,0,0-.14-.26.49.49,0,0,0-.3-.09h-14a.51.51,0,0,0-.3.09.28.28,0,0,0-.13.26l-2,10a.84.84,0,0,1-1,.78h-6.62a.77.77,0,0,1-.65-.26.79.79,0,0,1-.13-.69l13-59.25a.9.9,0,0,1,1-.79h7.67a.83.83,0,0,1,1,.79l13.15,59.25V355a.69.69,0,0,1-.78.78h-6.8A.9.9,0,0,1,779.91,355Zm-15.07-17h11.5c.17,0,.26-.12.26-.35l-5.74-29.8c-.06-.17-.12-.26-.18-.26s-.12.09-.18.26l-5.92,29.8C764.58,337.93,764.67,338.05,764.84,338.05Z"/><path class="cls-2" d="M814.81,352.21a15.44,15.44,0,0,1-4.23-11.29v-2.35a.77.77,0,0,1,.87-.87h6.45a.77.77,0,0,1,.87.87v1.92a9.69,9.69,0,0,0,2,6.4,6.4,6.4,0,0,0,5.14,2.4A6.65,6.65,0,0,0,831.1,347a9.82,9.82,0,0,0,1-10.5,13.32,13.32,0,0,0-2.87-3.44q-1.8-1.52-5.8-4.49a83.47,83.47,0,0,1-7-5.66,21,21,0,0,1-4.27-5.66,16.45,16.45,0,0,1-1.74-7.76q0-7.05,4.18-11.2a16.38,16.38,0,0,1,22.09.31q4.22,4.44,4.22,11.68v2.18a.77.77,0,0,1-.87.87h-6.45a.77.77,0,0,1-.87-.87v-2.36a9.53,9.53,0,0,0-2-6.31,6.49,6.49,0,0,0-5.23-2.4,6.26,6.26,0,0,0-4.93,2.13,8.77,8.77,0,0,0-1.87,6,9.1,9.1,0,0,0,1.92,5.88,42.21,42.21,0,0,0,7.32,6.41,100.39,100.39,0,0,1,8,6.36,18.14,18.14,0,0,1,4.1,5.36,15.59,15.59,0,0,1,1.43,6.92q0,7.32-4.31,11.72a16.45,16.45,0,0,1-22.3.09Z"/><path class="cls-2" d="M867.3,355V295.71a.78.78,0,0,1,.87-.88h6.63a.77.77,0,0,1,.86.88V355a.77.77,0,0,1-.86.87h-6.63A.77.77,0,0,1,867.3,355Z"/><path class="cls-2" d="M913.74,355l-12.55-59.25v-.17a.69.69,0,0,1,.78-.79h7.24a.83.83,0,0,1,.95.79l8.28,45.22c.06.11.11.17.17.17s.12-.06.18-.17l8.1-45.22a.9.9,0,0,1,1-.79h7q1,0,.78,1L923.06,355a.83.83,0,0,1-1,.78h-7.41A.88.88,0,0,1,913.74,355Z"/><path class="cls-2" d="M989.44,302.07h-19.6a.31.31,0,0,0-.35.35v18.9a.31.31,0,0,0,.35.35h12a.77.77,0,0,1,.87.87V328a.77.77,0,0,1-.87.87h-12a.31.31,0,0,0-.35.35v19a.31.31,0,0,0,.35.35h19.6a.78.78,0,0,1,.88.87V355a.78.78,0,0,1-.88.87H962a.77.77,0,0,1-.87-.87V295.71a.78.78,0,0,1,.87-.88h27.44a.78.78,0,0,1,.88.88v5.48A.78.78,0,0,1,989.44,302.07Z"/><path class="cls-2" d="M1054.13,352.21q-4.31-4.32-4.31-11.46V309.82q0-7.14,4.31-11.41t11.37-4.27q7.15,0,11.46,4.27t4.32,11.41v1.39a.77.77,0,0,1-.88.87l-6.62.36a.78.78,0,0,1-.87-.88V309.3a8,8,0,0,0-2.05-5.75,7,7,0,0,0-5.36-2.18,6.89,6.89,0,0,0-5.31,2.18,8.14,8.14,0,0,0-2,5.75v32.06a8.14,8.14,0,0,0,2,5.75,6.89,6.89,0,0,0,5.31,2.18,7,7,0,0,0,5.36-2.18,8,8,0,0,0,2.05-5.75v-2.27a.77.77,0,0,1,.87-.87l6.62.35a.78.78,0,0,1,.88.87v1.31q0,7.14-4.32,11.46t-11.46,4.31Q1058.45,356.52,1054.13,352.21Z"/><path class="cls-2" d="M1110.94,352.34a14.74,14.74,0,0,1-4.31-11.07V309.38a14.73,14.73,0,0,1,4.31-11.06q4.32-4.19,11.37-4.18t11.41,4.18q4.37,4.19,4.36,11.15v3.66a.77.77,0,0,1-.87.87h-6.62a.77.77,0,0,1-.87-.87V309.3a8.08,8.08,0,0,0-2-5.75,7.68,7.68,0,0,0-10.72,0,8.07,8.07,0,0,0-2,5.75v32.06a8.07,8.07,0,0,0,2,5.75,7.68,7.68,0,0,0,10.72,0,8.08,8.08,0,0,0,2-5.75v-9.58a.32.32,0,0,0-.35-.36h-6.62a.76.76,0,0,1-.87-.86v-5.4a.77.77,0,0,1,.87-.88h14.46a.78.78,0,0,1,.87.88v16.11a14.63,14.63,0,0,1-4.36,11.07q-4.35,4.19-11.41,4.18T1110.94,352.34Z"/><path class="cls-2" d="M1164.65,355V295.71a.78.78,0,0,1,.87-.88h6.63a.78.78,0,0,1,.87.88V355a.77.77,0,0,1-.87.87h-6.63A.77.77,0,0,1,1164.65,355Z"/></svg>