<?xml version="1.0" encoding="utf-8"?>
<!-- Generator: Adobe Illustrator 25.4.1, SVG Export Plug-In . SVG Version: 6.00 Build 0)  -->
<svg version="1.0" id="katman_1" xmlns="http://www.w3.org/2000/svg" xmlns:xlink="http://www.w3.org/1999/xlink" x="0px" y="0px"
	 viewBox="0 0 1500 1200" style="enable-background:new 0 0 1500 1200;" xml:space="preserve">
<style type="text/css">
	.st0{fill:#1D1D1B;}
</style>
<g id="cala-logo-white" transform="translate(-50 -50)">
	<g id="cala-logo-white-Group_2">
		<path id="cala-logo-whitePath_6" class="st0" d="M615.6,580.4c28,0,50.3,15.2,56.1,22.6l13.2-30.3c-8-8-30.3-24.3-68.9-24.3
			c-57.2,0-102.4,39.2-102.4,101.8s44.6,101.8,102.4,101.8c38.9,0,60.3-16,71.5-28l-13.2-28c-14.5,15.7-35,24.4-56.3,24
			c-39.5,0-66.1-27.7-66.1-70.3C551.8,602.9,581.3,580.4,615.6,580.4z"/>
		<path id="cala-logo-whitePath_7" class="st0" d="M916.2,550.9v197.6h103.1l12.2-30.9h-78.4V550.9H916.2z"/>
		<path id="cala-logo-whitePath_8" class="st0" d="M811.3,550.9h-36l-77.5,197.6h38.6l57.4-151.4L811.3,550.9z"/>
		<path id="cala-logo-whitePath_9" class="st0" d="M848.2,748.5h40.6l-77.5-197.6l-10.2,66.2l20.7,56.2h-29.4l-4.6,29.7H831
			L848.2,748.5z"/>
		<path id="cala-logo-whitePath_10" class="st0" d="M1133.4,703h43.1l17.2,45.5h40.6l-77.5-197.6h-36l-77.5,197.6h38.6l74.9-197.6
			l-10.2,66.2l20.7,56.2h-29.4L1133.4,703z"/>
		<path id="cala-logo-whitePath_11" class="st0" d="M1195.1,1047h-792V253.2h792v187.3h36.9V216.4H366.2v867.6H1232v-225h-36.9V1047
			z"/>
	</g>
</g>
</svg>
