<svg xmlns="http://www.w3.org/2000/svg" width="132.078" height="40" viewBox="0 0 132.078 40"><path d="M584.543 277.09v15.3h-13.989v-15.3h-10.249v40h10.249V300.8h13.988v16.281h10.246v-40z" transform="translate(-509.569 -277.085)"></path><g><g clip-path="url(#clip-path)"><path d="M664.336 282.26a5.094 5.094 0 11-10.188 0 5.094 5.094 0 1110.188 0" transform="translate(-563.21 -277.085)"></path><path d="M0 0h9.615v26.917H0z" transform="translate(91.224 13.082)"></path><path d="M0 0h9.613v39.995H0z" transform="translate(106.843 .004)"></path><path d="M0 0h9.612v39.995H0z" transform="translate(122.466 .004)"></path><path d="M466.616 317.076h15.252v-15.252H469.5v-9.494h12.372v-15.251h-15.256v12.373h-9.494v-12.373h-15.251v15.251h12.373v9.494h-12.373v15.252h15.251V304.7h9.494v12.372zm2.879-27.949v-9.169h9.492v9.494H469.5zm0 24.746V304.7h9.492v9.5H469.5zm-15.252-33.59v9.169h-9.493v-9.494h9.493zm0 24.745v9.172h-9.493v-9.5h9.493zm12.372-12.372v9.168h-9.493v-9.494h9.493z" transform="translate(-441.871 -277.079)"></path></g></g></svg>