<?xml version="1.0" encoding="utf-8"?>
<!-- Generator: Adobe Illustrator 26.1.0, SVG Export Plug-In . SVG Version: 6.00 Build 0)  -->
<svg version="1.1" id="Layer_1" xmlns="http://www.w3.org/2000/svg" xmlns:xlink="http://www.w3.org/1999/xlink" x="0px" y="0px"
	 viewBox="0 0 1897.13 747.22" style="enable-background:new 0 0 1897.13 747.22;" xml:space="preserve">
<g>
	<g>
		<g>
			<g>
				<g>
					<g>
						<polygon points="847.53,569.14 709.26,569.14 709.26,450.55 660.24,450.55 660.24,743.86 709.26,743.86 
							709.26,612.29 847.53,612.29 847.53,743.86 896.98,743.86 896.98,450.55 847.53,450.55 						" fill="#003C3B"/>
						<path d="M1611.19,529.33c-67.04,0-103.08,51.96-103.08,108.94c0,56.99,38.13,108.95,105.17,108.95
							c49.44,0,85.48-23.47,96.79-64.11l-43.16-10.89c-5.44,23.04-25.14,36.03-52.79,36.03c-33.52,0-56.99-22.62-61.18-59.08h161.32
							c0.42-3.77,0.84-12.57,0.84-18.86C1715.11,578.77,1679.07,529.33,1611.19,529.33z M1555.04,614.39
							c6.7-31.43,27.24-49.03,56.15-49.03c33.52,0,52.38,20.53,55.31,49.03H1555.04z" fill="#003C3B"/>
						<path d="M1037.45,529.5c-67.22-3.34-115.69,43.29-115.69,108.77c0,63.27,45.25,108.95,108.94,108.95
							c65.9,0,112.71-49.55,108.71-116.92C1136.17,575.77,1092,532.21,1037.45,529.5z M1030.7,707.41
							c-37.71,0-62.85-28.49-62.85-69.14c0-40.64,25.14-69.14,62.85-69.14c37.29,0,62.86,28.49,62.86,69.14
							C1093.56,678.92,1068,707.41,1030.7,707.41z" fill="#003C3B"/>
						<path d="M1778.54,586.32c0-13.83,12.57-21.79,32.68-21.79c19.27,0,38.97,11.73,44.42,32.69l37.71-15.92
							c-9.22-31.01-42.74-51.96-82.55-51.96c-45.67,0-74.58,24.72-74.58,57.82c0,80.03,117.74,50.28,117.74,95.95
							c0,15.09-14.66,27.66-36.45,27.66c-29.33,0-45.67-18.86-52.79-41.48l-37.71,15.92c9.64,30.17,38.97,62.01,90.51,62.01
							c47.77,0,79.61-28.08,79.61-64.53C1897.13,595.95,1778.54,626.96,1778.54,586.32z" fill="#003C3B"/>
						<path d="M1408.72,529.33c-33.1,0-58.25,18.86-69.56,41.9c-8.8-27.24-33.1-41.9-67.04-41.9
							c-30.59,0-50.7,15.92-62.01,38.97v-35.62h-45.68v211.18h45.68V637.02c0-40.22,18.02-68.3,49.44-68.3
							c26.82,0,41.48,17.6,41.48,44v131.15h45.26V637.02c0-40.65,18.01-68.3,49.44-68.3c26.82,0,41.9,17.6,41.9,44v131.15h45.67
							V601.4C1483.3,558.66,1453.97,529.33,1408.72,529.33z" fill="#003C3B"/>
						<path d="M1188.42,406.22c27.66,0,52.38-10.9,62.85-26.82v25.56c0,29.33-23.47,49.44-57.4,49.44
							c-27.65,0-49.86-13.83-52.38-34.78l-42.74,7.12c6.7,38.55,45.67,64.95,95.12,64.95c60.76,0,102.24-36.87,102.24-91.34V200.9
							h-45.25v24.3c-12.15-16.34-36.45-27.65-63.27-27.65c-62.01,0-98.05,43.16-98.05,104.34
							C1089.53,363.06,1125.56,406.22,1188.42,406.22z M1194.7,237.35c35.62,0,59.08,25.56,59.08,64.53
							c0,38.97-23.47,64.53-59.08,64.53c-36.04,0-59.5-25.56-59.5-64.53C1135.2,262.91,1158.67,237.35,1194.7,237.35z" fill="#003C3B"/>
						<path d="M1479.65,340.43c-5.45,23.05-25.14,36.04-52.79,36.04c-33.52,0-56.99-22.63-61.18-59.08H1527
							c0.42-3.77,0.84-12.57,0.84-18.86c0-51.54-36.04-100.98-103.92-100.98c-67.04,0-103.08,51.96-103.08,108.94
							c0,56.99,38.13,108.95,105.17,108.95c49.44,0,85.48-23.47,96.79-64.11L1479.65,340.43z M1423.92,233.58
							c33.52,0,52.38,20.53,55.31,49.03h-111.46C1374.48,251.18,1395.01,233.58,1423.92,233.58z" fill="#003C3B"/>
						<path d="M980.09,282.61c-64.95,6.7-97.21,28.91-97.21,70.39c0,36.04,28.91,62.43,70.81,62.43
							c28.08,0,54.05-14.25,66.21-35.62v32.26h44.83V280.51c0-52.79-36.87-82.96-90.51-82.96c-44.83,0-80.87,27.23-87.57,68.72
							l41.06,7.54c2.94-25.14,20.95-40.22,46.51-40.22c27.65,0,45.67,15.92,45.67,41.9v2.94L980.09,282.61z M1019.9,321.16
							c-0.42,34.36-21.37,59.08-56.99,59.08c-21.37,0-35.2-11.73-35.2-28.49c0-18.44,17.6-31.01,51.96-34.78l40.22-4.61V321.16z" fill="#003C3B"/>
						<path d="M756.61,372.69c-35.2,0-64.11-24.72-69.14-62.43l-44.83,13.83c8.38,53.63,55.31,91.35,112.3,91.35
							c65.79,0,108.95-33.94,108.95-85.06c0-118.16-160.9-77.1-160.9-136.18c0-22.62,19.27-36.03,51.12-36.03
							c33.52,0,56.57,18.86,62.43,48.6l44-18.01c-8.38-44-51.54-73.33-106.43-73.33c-57.4,0-100.56,32.26-100.56,78.77
							c0,105.59,160.48,67.46,160.48,137.02C814.02,356.35,791.39,372.69,756.61,372.69z" fill="#003C3B"/>
					</g>
				</g>
			</g>
		</g>
	</g>
	<g>
		<path d="M501.54,250.77C501.54,112.27,389.27,0,250.77,0C112.27,0,0,112.27,0,250.77l0,469.77v24.79l35.67-0.26
			c131.37-5.78,236.48-112.63,239.48-244.71c72.72-7.02,136.35-45.09,177.48-100.8v95c0,111.49-90.38,201.86-201.86,201.86l-24.45,0
			v48.91l26.29-0.02c137.65-0.99,248.94-112.86,248.94-250.75V250.77z M250.77,48.91c61.73,0,117.06,27.86,154.12,71.66
			c-12.93-4.03-26.68-6.2-40.94-6.2c-46.93,0-88.35,23.51-113.18,59.38c-24.83-35.87-66.25-59.38-113.18-59.38
			c-14.26,0-28.01,2.17-40.94,6.2C133.71,76.77,189.04,48.91,250.77,48.91z M48.91,694.93V399.56
			c41.1,55.67,104.67,93.72,177.32,100.78C223.39,600.76,146.85,683.05,48.91,694.93z M250.77,452.63
			c-111.26,0-201.78-90.47-201.86-201.71c0.57-48.42,40.12-87.64,88.68-87.64c48.57,0,88.13,39.24,88.68,87.69l0.05,61.35h48.91
			l0.05-61.35c0.55-48.44,40.11-87.69,88.68-87.69c48.55,0,88.1,39.22,88.68,87.64C452.55,362.15,362.03,452.63,250.77,452.63z" fill="#003C3B"/>
		<path d="M138.12,215.47L138.12,215.47c-19.51,0-35.32,15.81-35.31,35.31c0,18.91,15.38,34.29,34.29,34.29h0.01
			c19.5,0,35.31-15.81,35.31-35.31v0C172.42,230.83,157.06,215.47,138.12,215.47z" fill="#003C3B"/>
		<path d="M364.43,215.47L364.43,215.47c-19.51,0-35.32,15.81-35.31,35.31c0,18.91,15.38,34.29,34.29,34.29h0.01
			c19.5,0,35.31-15.81,35.31-35.31v0C398.73,230.83,383.38,215.47,364.43,215.47z" fill="#003C3B"/>
	</g>
</g>
</svg>
